<svg width="160" height="160" viewBox="0 0 160 160" fill="none" xmlns="http://www.w3.org/2000/svg">
<path d="M80.02 45.6102C110.847 45.6102 135.8 79.8268 135.8 79.8268C135.8 79.8268 110.847 113.8 80.02 113.8C49.1933 113.8 24.2167 79.8268 24.2167 79.8268C24.2167 79.8268 49.1933 45.6102 80.02 45.6102ZM80.02 39.4102C46.4333 39.4102 20.3033 74.6802 19.2033 76.1802L16.5267 79.8502L19.2133 83.5068C20.3167 84.9968 46.4467 120 80.02 120C113.593 120 139.7 84.9968 140.787 83.5102L143.473 79.8535L140.81 76.1835C139.71 74.6802 113.607 39.4102 80.02 39.4102Z" fill="#CFD8DC"/>
<path d="M24.2167 79.8265C24.2167 79.8265 49.1933 45.6099 80.02 45.6099C110.847 45.6099 135.8 79.8265 135.8 79.8265C135.8 79.8265 110.847 113.8 80.02 113.8C49.1933 113.8 24.2167 79.8265 24.2167 79.8265Z" fill="white"/>
<path d="M52.1234 79.6801C52.1234 64.2767 64.63 51.8101 80.02 51.8101C95.42 51.8101 107.917 64.2801 107.917 79.6801C107.917 95.1201 95.42 107.6 80.02 107.6C64.63 107.603 52.1234 95.1201 52.1234 79.6801Z" fill="#3585FE"/>
<path d="M70.74 79.7068C70.74 74.5701 74.89 70.4268 80.02 70.4268C85.14 70.4268 89.3 74.5668 89.3 79.7068C89.3 84.8534 85.14 88.9867 80.02 88.9867C74.89 88.9834 70.74 84.8534 70.74 79.7068Z" fill="#CDE2FF"/>
<path d="M24.3134 79.7068C25.9334 77.5402 50.2467 45.7335 80.02 45.7335C109.79 45.7335 134.08 77.5402 135.7 79.7068H151.063L145.797 72.5168C144.623 70.9035 116.707 33.3335 80.02 33.3335C43.3334 33.3335 15.3867 70.9035 14.2133 72.5035L8.93335 79.7068H24.3134Z" fill="#90A4AE"/>
<path d="M80.8134 107.56C95.49 107.147 107.313 95.4134 107.863 80.7334C94.3834 83.5401 83.7367 94.1234 80.8134 107.56Z" fill="#4DD0E1"/>
<path d="M137.197 87.96C135.587 86.6367 133.853 85.4667 132.023 84.4434C123.943 93.7234 103.747 113.773 80.0633 113.797C80.0467 114.2 80 114.593 80 115C80 116.697 80.1633 118.353 80.3967 119.987C107.02 119.78 128.873 97.6767 137.197 87.96Z" fill="#EEEEEE"/>
<path d="M159.983 154.06L137.753 131.83C141.243 127.12 143.333 121.31 143.333 115C143.333 99.3532 130.647 86.6665 115 86.6665C99.3534 86.6665 86.6667 99.3532 86.6667 115C86.6667 130.647 99.3534 143.333 115 143.333C121.31 143.333 127.12 141.243 131.83 137.753L154.06 159.983L159.983 154.06Z" fill="#616161"/>
<path d="M136.667 115C136.667 127 127 136.667 115 136.667C103 136.667 93.3333 127 93.3333 115C93.3333 103 103 93.3335 115 93.3335C127 93.3335 136.667 103 136.667 115Z" fill="#BBDEFB"/>
<path d="M123.333 111.667C122 111.667 120.667 111.333 119.667 110.333C117 107.667 113 107.667 110.333 110.333C108.333 112.333 105 112.333 103.333 110.333C101.333 108.333 101.333 105 103.333 103.333C109.667 96.6668 120.333 96.6668 126.667 103.333C128.667 105.333 128.667 108.333 126.667 110.333C125.667 111.333 124.667 111.667 123.333 111.667Z" fill="#E3F2FD"/>
<path d="M140.369 146.293L146.292 140.37L159.982 154.06L154.059 159.983L140.369 146.293Z" fill="#37474F"/>
</svg>
