<svg width="144" height="144" viewBox="0 0 144 144" fill="none" xmlns="http://www.w3.org/2000/svg">
<path d="M63.6 134.4L9.6 80.4C4.8 75.6 4.8 68.1 9.6 63.3L63.6 9.30001C68.4 4.50001 75.9 4.50001 80.7 9.30001L134.7 63.3C139.5 68.1 139.5 75.6 134.7 80.4L80.7 134.4C75.9 139.2 68.1 139.2 63.6 134.4Z" fill="#F44336"/>
<path d="M64.7998 98.1C64.7998 97.2 65.0998 96.3 65.3998 95.4C65.6998 94.5 66.2998 93.9 66.8998 93.3C67.4998 92.7 68.3998 92.1 69.2998 91.8C70.1998 91.5 71.0998 91.2 72.2998 91.2C73.4998 91.2 74.3998 91.5 75.2998 91.8C76.1998 92.1 77.0998 92.7 77.6998 93.3C78.2998 93.9 78.8998 94.5 79.1998 95.4C79.4998 96.3 79.7998 97.2 79.7998 98.1C79.7998 99 79.4998 99.9 79.1998 100.8C78.8998 101.7 78.2998 102.3 77.6998 102.9C77.0998 103.5 76.1998 104.1 75.2998 104.4C74.3998 104.7 73.4998 105 72.2998 105C71.0998 105 70.1998 104.7 69.2998 104.4C68.3998 104.1 67.7998 103.5 66.8998 102.9C66.2998 102.3 65.6998 101.7 65.3998 100.8C65.0998 99.9 64.7998 99.3 64.7998 98.1ZM77.3998 84.3H66.5998L65.0998 39H78.8998L77.3998 84.3Z" fill="white"/>
</svg>
