<svg width="144" height="144" viewBox="0 0 144 144" fill="none" xmlns="http://www.w3.org/2000/svg">
<path d="M72 132C105.137 132 132 105.137 132 72C132 38.8629 105.137 12 72 12C38.8629 12 12 38.8629 12 72C12 105.137 38.8629 132 72 132Z" fill="#4CAF50"/>
<path d="M66.9997 93.1178C65.2717 93.1178 63.5437 92.4578 62.2267 91.1408L43.9778 72.8888C41.3408 70.2548 41.3408 65.9798 43.9778 63.3428C46.6118 60.7058 50.8898 60.7058 53.5238 63.3428L71.7728 81.5948C74.4098 84.2288 74.4098 88.5038 71.7728 91.1408C70.4558 92.4578 68.7277 93.1178 66.9997 93.1178Z" fill="white"/>
<path d="M66.9998 93.1178C65.2718 93.1178 63.5438 92.4577 62.2268 91.1408C59.5898 88.5067 59.5898 84.2318 62.2268 81.5948L90.8438 52.9777C93.4778 50.3408 97.7558 50.3408 100.39 52.9777C103.027 55.6117 103.027 59.8868 100.39 62.5238L71.7728 91.1408C70.4558 92.4577 68.7278 93.1178 66.9998 93.1178Z" fill="white"/>
</svg>
