<svg width="109" height="18" viewBox="0 0 109 18" fill="none" xmlns="http://www.w3.org/2000/svg">
<path d="M5.16318 14C9.15181 14 11.568 11.5327 11.568 7.44176C11.568 3.36364 9.15181 0.909091 5.20153 0.909091H0.52255V14H5.16318ZM3.29031 11.6286V3.28054H5.05451C7.50906 3.28054 8.80664 4.53338 8.80664 7.44176C8.80664 10.3629 7.50906 11.6286 5.04812 11.6286H3.29031ZM18.0415 14.1918C20.4705 14.1918 22.1069 13.0092 22.4904 11.1875L19.9719 11.0213C19.6971 11.7692 18.994 12.1591 18.0863 12.1591C16.7248 12.1591 15.8619 11.2578 15.8619 9.79403V9.78764H22.5479V9.03977C22.5479 5.70312 20.5281 4.05398 17.9329 4.05398C15.0437 4.05398 13.1708 6.10582 13.1708 9.13565C13.1708 12.2486 15.0181 14.1918 18.0415 14.1918ZM15.8619 8.10014C15.9194 6.98153 16.7695 6.08665 17.9776 6.08665C19.1602 6.08665 19.9783 6.9304 19.9847 8.10014H15.8619ZM28.7994 14.1918C31.2283 14.1918 32.8647 13.0092 33.2482 11.1875L30.7298 11.0213C30.4549 11.7692 29.7518 12.1591 28.8441 12.1591C27.4826 12.1591 26.6197 11.2578 26.6197 9.79403V9.78764H33.3058V9.03977C33.3058 5.70312 31.2859 4.05398 28.6907 4.05398C25.8015 4.05398 23.9286 6.10582 23.9286 9.13565C23.9286 12.2486 25.7759 14.1918 28.7994 14.1918ZM26.6197 8.10014C26.6772 6.98153 27.5273 6.08665 28.7354 6.08665C29.918 6.08665 30.7362 6.9304 30.7425 8.10014H26.6197ZM35.0827 17.6818H37.8058V12.4276H37.8888C38.266 13.2457 39.0906 14.1598 40.6758 14.1598C42.913 14.1598 44.658 12.3892 44.658 9.10369C44.658 5.72869 42.8363 4.05398 40.6822 4.05398C39.0394 4.05398 38.2532 5.03196 37.8888 5.83097H37.7674V4.18182H35.0827V17.6818ZM37.7482 9.09091C37.7482 7.33949 38.4897 6.22088 39.8129 6.22088C41.1616 6.22088 41.8775 7.39062 41.8775 9.09091C41.8775 10.804 41.1488 11.9929 39.8129 11.9929C38.5025 11.9929 37.7482 10.8423 37.7482 9.09091ZM55.3311 14C59.3198 14 61.736 11.5327 61.736 7.44176C61.736 3.36364 59.3198 0.909091 55.3695 0.909091H50.6905V14H55.3311ZM53.4583 11.6286V3.28054H55.2225C57.677 3.28054 58.9746 4.53338 58.9746 7.44176C58.9746 10.3629 57.677 11.6286 55.2161 11.6286H53.4583ZM68.2095 14.1918C70.6385 14.1918 72.2749 13.0092 72.6584 11.1875L70.1399 11.0213C69.8651 11.7692 69.1619 12.1591 68.2543 12.1591C66.8928 12.1591 66.0298 11.2578 66.0298 9.79403V9.78764H72.7159V9.03977C72.7159 5.70312 70.696 4.05398 68.1009 4.05398C65.2116 4.05398 63.3388 6.10582 63.3388 9.13565C63.3388 12.2486 65.1861 14.1918 68.2095 14.1918ZM66.0298 8.10014C66.0874 6.98153 66.9375 6.08665 68.1456 6.08665C69.3281 6.08665 70.1463 6.9304 70.1527 8.10014H66.0298ZM79.7152 4.18182H77.8679V1.82955H75.1449V4.18182H73.8026V6.22727H75.1449V11.3409C75.1321 13.2649 76.4425 14.2173 78.4176 14.1342C79.1207 14.1087 79.6193 13.968 79.8942 13.8786L79.4659 11.8523C79.3317 11.8778 79.044 11.9418 78.7884 11.9418C78.245 11.9418 77.8679 11.7372 77.8679 10.983V6.22727H79.7152V4.18182ZM85.858 14.1918C88.2869 14.1918 89.9233 13.0092 90.3068 11.1875L87.7884 11.0213C87.5135 11.7692 86.8104 12.1591 85.9027 12.1591C84.5412 12.1591 83.6783 11.2578 83.6783 9.79403V9.78764H90.3643V9.03977C90.3643 5.70312 88.3445 4.05398 85.7493 4.05398C82.8601 4.05398 80.9872 6.10582 80.9872 9.13565C80.9872 12.2486 82.8345 14.1918 85.858 14.1918ZM83.6783 8.10014C83.7358 6.98153 84.5859 6.08665 85.794 6.08665C86.9766 6.08665 87.7947 6.9304 87.8011 8.10014H83.6783ZM96.5774 14.1918C99.1918 14.1918 100.835 12.6577 100.962 10.4013H98.3928C98.233 11.4496 97.5426 12.0376 96.6094 12.0376C95.3374 12.0376 94.5128 10.9702 94.5128 9.09091C94.5128 7.23722 95.3438 6.17614 96.6094 6.17614C97.6065 6.17614 98.2457 6.83452 98.3928 7.8125H100.962C100.847 5.54332 99.1278 4.05398 96.5646 4.05398C93.5859 4.05398 91.745 6.11861 91.745 9.12926C91.745 12.1143 93.554 14.1918 96.5774 14.1918ZM107.928 4.18182H106.081V1.82955H103.358V4.18182H102.015V6.22727H103.358V11.3409C103.345 13.2649 104.655 14.2173 106.631 14.1342C107.334 14.1087 107.832 13.968 108.107 13.8786L107.679 11.8523C107.545 11.8778 107.257 11.9418 107.001 11.9418C106.458 11.9418 106.081 11.7372 106.081 10.983V6.22727H107.928V4.18182Z" fill="white"/>
</svg>
