<svg width="51" height="51" viewBox="0 0 51 51" fill="none" xmlns="http://www.w3.org/2000/svg">
<path d="M51 33.5708C51 37.1535 39.5834 40.375 25.5 40.375C11.4166 40.375 0 37.1535 0 33.5708C0 29.988 11.4166 27.0831 25.5 27.0831C39.5834 27.0831 51 29.988 51 33.5708Z" fill="white"/>
<path d="M37.9599 31.875H13.04C10.9714 31.875 9.36805 30.2324 9.58161 28.3464C10.2935 22.0575 12.4705 9.5625 18.5438 9.5625C19.9612 9.5625 21.3775 10.1713 22.559 10.8917C24.3695 11.9967 26.6294 11.9967 28.441 10.8917C29.6225 10.1713 31.0388 9.5625 32.4562 9.5625C38.5294 9.5625 40.7065 22.0575 41.4184 28.3464C41.6319 30.2324 40.0286 31.875 37.9599 31.875Z" fill="white"/>
<path d="M41.4184 28.4899C41.4152 28.4421 41.4247 28.3953 41.4184 28.3464C41.2186 26.5763 40.902 24.3132 40.4143 21.9767C39.4209 22.5101 35.1624 24.4375 25.5 24.4375C15.6719 24.4375 11.4346 22.4442 10.5836 21.9842C10.098 24.3185 9.78138 26.5784 9.58163 28.3475C9.57631 28.3964 9.58481 28.4421 9.58163 28.4909C12.4068 29.5662 17.4091 30.8125 25.5 30.8125C33.5909 30.8125 38.5932 29.5662 41.4184 28.4899Z" fill="#F0F0F0"/>
</svg>
